<svg width="45" height="45" viewBox="0 0 45 45" fill="none" xmlns="http://www.w3.org/2000/svg">
<g clip-path="url(#clip0_1054_130)">
<path d="M23.5 26.2188C25.0015 26.2188 26.2188 25.0015 26.2188 23.5C26.2188 21.9985 25.0015 20.7812 23.5 20.7812C21.9985 20.7812 20.7812 21.9985 20.7812 23.5C20.7812 25.0015 21.9985 26.2188 23.5 26.2188Z" stroke="#636363" stroke-width="0.90625" stroke-linecap="round" stroke-linejoin="round"/>
<path d="M14.4375 26.2188C15.939 26.2188 17.1562 25.0015 17.1562 23.5C17.1562 21.9985 15.939 20.7812 14.4375 20.7812C12.936 20.7812 11.7188 21.9985 11.7188 23.5C11.7188 25.0015 12.936 26.2188 14.4375 26.2188Z" stroke="#636363" stroke-width="0.90625" stroke-linecap="round" stroke-linejoin="round"/>
<path d="M32.5625 26.2188C34.064 26.2188 35.2812 25.0015 35.2812 23.5C35.2812 21.9985 34.064 20.7812 32.5625 20.7812C31.061 20.7812 29.8438 21.9985 29.8438 23.5C29.8438 25.0015 31.061 26.2188 32.5625 26.2188Z" stroke="#636363" stroke-width="0.90625" stroke-linecap="round" stroke-linejoin="round"/>
</g>
<path d="M22.75 44.5C34.7622 44.5 44.5 34.7622 44.5 22.75C44.5 10.7378 34.7622 1 22.75 1C10.7378 1 1 10.7378 1 22.75C1 34.7622 10.7378 44.5 22.75 44.5Z" stroke="#636363" stroke-linecap="round" stroke-linejoin="round"/>
<defs>
<clipPath id="clip0_1054_130">
<rect width="29" height="29" fill="white" transform="translate(9 9)"/>
</clipPath>
</defs>
</svg>
